<?xml version="1.0" standalone="no"?>
<!DOCTYPE svg PUBLIC "-//W3C//DTD SVG 20010904//EN"
 "http://www.w3.org/TR/2001/REC-SVG-20010904/DTD/svg10.dtd">
<svg version="1.0" xmlns="http://www.w3.org/2000/svg"
 width="192.000000pt" height="192.000000pt" viewBox="0 0 192.000000 192.000000"
 preserveAspectRatio="xMidYMid meet">
<metadata>
Created by potrace 1.16, written by Peter Selinger 2001-2019
</metadata>
<g transform="translate(0.000000,192.000000) scale(0.100000,-0.100000)"
fill="#000000" stroke="none">
<path d="M35 1204 c-6 -2 -9 -93 -8 -246 l2 -243 28 0 28 0 0 173 c0 94 1 172
2 172 0 0 25 -37 54 -82 29 -46 83 -125 121 -175 54 -74 73 -93 93 -93 l25 0
0 245 c0 210 -2 246 -15 251 -8 4 -22 0 -31 -7 -13 -11 -15 -38 -12 -182 3
-152 2 -166 -12 -146 -202 306 -238 349 -275 333z"/>
<path d="M807 1192 c-10 -10 -17 -28 -17 -41 0 -26 28 -40 40 -20 5 7 11 11
15 8 9 -10 95 -172 95 -180 0 -12 -90 -140 -124 -177 -25 -26 -28 -36 -20 -50
6 -9 22 -17 35 -17 18 0 36 19 81 88 32 48 63 85 69 82 5 -4 23 -34 40 -68 42
-83 65 -107 104 -107 53 0 84 52 49 81 -13 10 -17 10 -24 0 -4 -8 -12 -11 -18
-7 -13 8 -102 170 -102 186 0 15 76 128 114 168 24 26 28 36 20 50 -6 9 -21
18 -32 20 -21 3 -37 -17 -128 -165 -10 -16 -16 -8 -47 54 -20 40 -47 81 -59
92 -27 26 -70 27 -91 3z"/>
<path d="M1674 1193 c-38 -19 -64 -61 -64 -103 0 -54 34 -95 125 -150 116 -70
139 -108 96 -161 -15 -19 -28 -23 -71 -23 -45 0 -56 4 -77 28 -15 18 -23 38
-21 55 4 34 -23 40 -52 11 -16 -16 -20 -28 -15 -48 15 -61 69 -92 160 -92 110
0 165 44 165 133 0 46 -4 53 -43 91 -24 22 -72 59 -108 81 -76 47 -99 84 -75
119 17 27 57 37 99 25 35 -10 47 -24 47 -56 0 -40 56 -37 66 4 15 58 -48 103
-144 102 -31 0 -71 -7 -88 -16z"/>
<path d="M566 1080 c-69 -21 -107 -87 -107 -187 0 -119 56 -183 160 -183 38 0
66 6 89 20 39 24 61 65 44 82 -9 9 -19 5 -41 -16 -48 -46 -140 -35 -161 20
-19 49 -14 54 50 54 104 0 160 40 160 113 0 80 -94 126 -194 97z m102 -52 c18
-18 14 -73 -7 -92 -21 -19 -115 -33 -124 -19 -10 15 12 82 34 104 21 21 78 26
97 7z"/>
<path d="M1241 1081 c-11 -7 -14 -35 -12 -133 2 -155 7 -181 38 -213 34 -33
110 -35 155 -4 l29 21 15 -21 c18 -25 65 -28 84 -6 8 9 10 25 5 42 -4 16 -10
22 -12 16 -3 -7 -9 -13 -14 -13 -5 0 -9 64 -9 144 0 118 -3 147 -16 160 -18
18 -28 20 -53 7 -15 -8 -16 -19 -10 -78 16 -142 -14 -235 -78 -241 -23 -2 -34
2 -41 15 -5 10 -13 79 -16 153 -9 154 -20 180 -65 151z"/>
</g>
</svg>
